<svg width="25" height="24" viewBox="0 0 25 24" fill="none" xmlns="http://www.w3.org/2000/svg">
<path d="M10.0001 19C10.0001 21.0006 10.3557 21.7561 11.0596 22.1961C11.477 22.4569 12.1126 22.669 13.1084 22.8073C14.0981 22.9448 15.3669 23 17.0001 23C18.6334 23 19.9022 22.9448 20.8919 22.8073C21.8877 22.669 22.5232 22.4569 22.9406 22.1961C23.6446 21.7561 24.0001 21.0006 24.0001 19C24.0001 16.9994 23.6446 16.2439 22.9406 15.8039C22.5232 15.5431 21.8877 15.331 20.8919 15.1927C19.9022 15.0552 18.6334 15 17.0001 15C15.3669 15 14.0981 15.0552 13.1084 15.1927C12.1126 15.331 11.477 15.5431 11.0596 15.8039C10.3557 16.2439 10.0001 16.9994 10.0001 19Z" stroke="white" stroke-width="2" stroke-linecap="round" stroke-linejoin="round"/>
<path d="M12.6665 6C12.6665 8.87541 14.714 11 16.9998 11C19.2856 11 21.3331 8.87541 21.3331 6C21.3331 3.12459 19.2856 1 16.9998 1C14.714 1 12.6665 3.12459 12.6665 6Z" stroke="white" stroke-width="2"/>
<path d="M9.88881 3C7.75547 3 6.33325 5 6.33325 7C6.33325 9 7.75547 11 9.88881 11" stroke="white" stroke-width="2" stroke-linecap="round" stroke-linejoin="round"/>
<path d="M6.21491 21.0001C2.89639 21.0001 1.0001 20.5001 1.0001 17.5001C1.0001 14.5001 2.89639 14.0001 8.11121 14.0001" stroke="white" stroke-width="2" stroke-linecap="round" stroke-linejoin="round"/>
</svg>
