<svg width="50" height="50" viewBox="0 0 50 50" fill="none" xmlns="http://www.w3.org/2000/svg">
<circle cx="25" cy="25.0001" r="25" fill="#F6EEFF"/>
<path d="M16 26.0001C16 29.7304 16.4738 31.5398 17.5808 32.5361C18.1368 33.0365 18.9396 33.4115 20.1595 33.6555C21.3854 33.9007 22.9616 34.0001 25 34.0001C27.0384 34.0001 28.6146 33.9007 29.8405 33.6555C31.0604 33.4115 31.8632 33.0365 32.4192 32.5361C33.5262 31.5398 34 29.7304 34 26.0001C34 22.2698 33.5262 20.4604 32.4192 19.4641C31.8632 18.9637 31.0604 18.5887 29.8405 18.3447C28.6146 18.0995 27.0384 18.0001 25 18.0001C22.3021 18.0001 20.433 18.1756 19.1217 18.6154C17.8797 19.0319 17.1703 19.6721 16.719 20.6811C16.2117 21.8155 16 23.4832 16 26.0001Z" stroke="#828282" stroke-width="2" stroke-linecap="round" stroke-linejoin="round"/>
</svg>
