<svg width="26" height="26" viewBox="0 0 26 26" fill="none" xmlns="http://www.w3.org/2000/svg">
<path d="M24.5 12H14.4999C14.2239 12 13.9999 11.776 13.9999 11.5C13.9999 11.224 14.2239 11 14.4999 11H24.5C24.776 11 25 11.224 25 11.5C25 11.776 24.776 12 24.5 12Z" fill="white" stroke="white" stroke-width="0.5"/>
<path d="M9.00006 25C8.78006 25 8.56505 24.963 8.36205 24.891L2.37201 22.894C1.552 22.621 1 21.859 1 21V3C1 1.897 1.89701 1 3.00001 1C3.22202 1 3.43802 1.037 3.63902 1.11L9.62806 3.106C10.4481 3.378 11.0001 4.14 11.0001 5V23C11.0001 24.103 10.1031 25 9.00006 25ZM3.00001 2C2.44801 2 2.00001 2.449 2.00001 3V21C2.00001 21.428 2.27601 21.808 2.68801 21.946L8.68806 23.946C9.34406 24.179 10.0001 23.654 10.0001 23V5C10.0001 4.571 9.72406 4.191 9.31206 4.055L3.31202 2.055C3.20902 2.018 3.10402 2 3.00001 2Z" fill="white" stroke="white" stroke-width="0.5"/>
<path d="M16.5001 9C16.2241 9 16.0001 8.776 16.0001 8.5V3.5C16.0001 2.673 15.3271 2 14.5001 2H3C2.724 2 2.5 1.776 2.5 1.5C2.5 1.224 2.724 1 3 1H14.5001C15.8791 1 17.0001 2.122 17.0001 3.5V8.5C17.0001 8.776 16.7761 9 16.5001 9Z" fill="white" stroke="white" stroke-width="0.5"/>
<path d="M20.5003 16C20.3723 16 20.2443 15.951 20.1463 15.854C19.9512 15.659 19.9512 15.342 20.1463 15.147L23.7923 11.501L20.1463 7.85502C19.9512 7.66002 19.9512 7.34302 20.1463 7.14802C20.3413 6.95302 20.6583 6.95302 20.8533 7.14802L24.8533 11.148C25.0483 11.343 25.0483 11.66 24.8533 11.855L20.8533 15.855C20.7563 15.951 20.6283 16 20.5003 16Z" fill="white" stroke="white" stroke-width="0.5"/>
</svg>
