<svg width="39" height="35" viewBox="0 0 39 35" fill="none" xmlns="http://www.w3.org/2000/svg">
<path d="M31 13.0512C31 13.5559 30.6026 13.9649 30.1124 13.9649C29.6222 13.9649 29.2249 13.5559 29.2249 13.0512C29.2249 10.5176 28.4084 8.47728 27.0441 7.07264C25.6797 5.66801 23.6978 4.82749 21.2368 4.82749C20.7466 4.82749 20.3493 4.41841 20.3493 3.91374C20.3493 3.40908 20.7466 3 21.2368 3C24.1012 3 26.5572 3.98697 28.2992 5.78044C30.0413 7.57391 31 10.1023 31 13.0512Z" fill="#78849E"/>
<path d="M26.5622 13.9649C27.0524 13.9649 27.4498 13.5559 27.4498 13.0512C27.4498 9.34841 24.8335 6.65498 21.2368 6.65498C20.7466 6.65498 20.3493 7.06405 20.3493 7.56872C20.3493 8.07339 20.7466 8.48247 21.2368 8.48247C23.8531 8.48247 25.6746 10.3577 25.6746 13.0512C25.6746 13.5559 26.072 13.9649 26.5622 13.9649Z" fill="#78849E"/>
<path d="M13.8384 24.7893C13.5358 25.1863 13.603 25.7607 13.9886 26.0723C16.1994 27.8589 19.4572 26.9602 20.5042 24.275C20.6868 23.8066 20.466 23.2745 20.0111 23.0866C19.5562 22.8986 19.0394 23.1259 18.8568 23.5942C18.2507 25.1488 16.3646 25.6691 15.0846 24.6348C14.699 24.3232 14.1411 24.3924 13.8384 24.7893Z" fill="#78849E"/>
<path d="M13.3591 6.80801C13.3558 6.79262 13.3522 6.77728 13.3482 6.76189C13.2214 6.2744 12.7347 5.98517 12.2612 6.11579C11.7877 6.24635 11.5067 6.74739 11.6336 7.23488C11.6376 7.25027 11.642 7.26544 11.6467 7.28044C8.88757 8.49803 7.05177 12.5659 8.44227 16.1559C8.95799 17.2296 8.42039 18.0221 7.86089 18.8469C7.33228 19.6264 6.78405 20.4347 7.08623 21.5365C7.4896 23.0863 8.56535 23.6898 9.93256 23.759C9.93256 23.759 12.4741 24.0305 16.6259 22.8852C20.7777 21.7399 22.8469 20.1966 22.8469 20.1966C23.9972 19.4328 24.6249 18.3137 24.2324 16.8067C23.942 15.6914 23.075 15.2732 22.2431 14.872C21.3617 14.4469 20.5198 14.0409 20.4449 12.8449C19.9055 9.02004 16.34 6.44205 13.3591 6.80801Z" fill="#78849E"/>
<circle cx="7.5" cy="8.5" r="7" fill="#FF9900" stroke="white"/>
<path d="M7.702 12.162C7.302 12.162 6.914 12.108 6.538 12C6.166 11.888 5.83 11.724 5.53 11.508C5.234 11.292 5 11.024 4.828 10.704C4.656 10.384 4.57 10.014 4.57 9.594H5.902C5.918 9.886 6.004 10.138 6.16 10.35C6.316 10.558 6.526 10.718 6.79 10.83C7.058 10.938 7.362 10.992 7.702 10.992C8.21 10.992 8.606 10.872 8.89 10.632C9.178 10.392 9.322 10.092 9.322 9.732C9.322 9.496 9.262 9.292 9.142 9.12C9.026 8.948 8.846 8.816 8.602 8.724C8.358 8.628 8.042 8.58 7.654 8.58H6.676V7.572H7.462C7.958 7.572 8.346 7.468 8.626 7.26C8.906 7.052 9.046 6.77 9.046 6.414C9.046 6.098 8.928 5.832 8.692 5.616C8.456 5.4 8.106 5.292 7.642 5.292C7.27 5.292 6.938 5.368 6.646 5.52C6.354 5.672 6.164 5.94 6.076 6.324H4.744C4.8 5.808 4.956 5.39 5.212 5.07C5.472 4.746 5.806 4.51 6.214 4.362C6.622 4.21 7.08 4.134 7.588 4.134C8.136 4.134 8.622 4.226 9.046 4.41C9.474 4.59 9.81 4.84 10.054 5.16C10.302 5.48 10.426 5.852 10.426 6.276C10.426 6.672 10.316 7.014 10.096 7.302C9.876 7.59 9.554 7.808 9.13 7.956C9.602 8.112 9.982 8.348 10.27 8.664C10.562 8.976 10.708 9.37 10.708 9.846C10.708 10.298 10.584 10.698 10.336 11.046C10.088 11.394 9.738 11.668 9.286 11.868C8.838 12.064 8.31 12.162 7.702 12.162Z" fill="white"/>
</svg>
