<svg width="50" height="50" viewBox="0 0 50 50" fill="none" xmlns="http://www.w3.org/2000/svg">
<circle cx="25" cy="25.0001" r="25" fill="#F6EEFF"/>
<path d="M26.4878 27.6182C27.1323 28.0722 27.8079 28.4539 28.5043 28.7428C28.9367 28.8996 29.6153 28.4555 30.1142 28.129L30.1143 28.129C30.239 28.0474 30.3524 27.9731 30.448 27.9174L30.4794 27.8998C30.9494 27.6359 31.4713 27.3428 32.1423 27.4841C32.7452 27.6079 34.8136 29.238 35.3853 29.8158C35.7595 30.1872 35.9674 30.5792 35.9986 30.9816C36.0609 32.4776 34.0548 34.1592 33.5767 34.4481C32.5581 35.1909 31.1964 35.1806 29.5541 34.4378C27.7975 33.7259 25.6979 32.2299 23.671 30.4142C22.9454 29.7642 21.5521 28.3956 21.1556 27.9386C19.1079 25.7204 17.3824 23.3372 16.5717 21.4079C16.1871 20.5929 16 19.8397 16 19.1691C16 18.5088 16.1871 17.9207 16.5509 17.4152C16.7692 17.0335 18.5258 14.9494 20.0745 15.001C20.4591 15.0423 20.8541 15.2383 21.2387 15.6097C21.8208 16.1772 23.4943 18.2303 23.619 18.839C23.7613 19.4948 23.4662 20.0124 23.2004 20.4788L23.1824 20.5103C23.1225 20.6138 23.0413 20.7366 22.9525 20.8709L22.9525 20.8709C22.6253 21.3655 22.1953 22.0154 22.3499 22.4293C22.7355 23.3784 23.2864 24.307 23.9506 25.1633C24.6877 26.0446 25.8434 27.1643 26.4878 27.6182Z" stroke="#828282" stroke-width="2"/>
</svg>
